<?xml version="1.0" standalone="no"?>
<!DOCTYPE svg PUBLIC "-//W3C//DTD SVG 20010904//EN"
 "http://www.w3.org/TR/2001/REC-SVG-20010904/DTD/svg10.dtd">
<svg version="1.0" xmlns="http://www.w3.org/2000/svg"
 width="52.000000pt" height="52.000000pt" viewBox="0 0 52.000000 52.000000"
 preserveAspectRatio="xMidYMid meet">

<g transform="translate(0.000000,52.000000) scale(0.100000,-0.100000)"
fill="#000000" stroke="none">
<path d="M248 473 c12 -2 30 -2 40 0 9 3 -1 5 -23 4 -22 0 -30 -2 -17 -4z"/>
<path d="M121 424 c-18 -14 -36 -36 -42 -48 -8 -17 -7 -16 10 4 11 14 32 35
48 47 15 13 25 23 21 23 -3 0 -20 -12 -37 -26z"/>
<path d="M253 443 c9 -2 23 -2 30 0 6 3 -1 5 -18 5 -16 0 -22 -2 -12 -5z"/>
<path d="M317 414 c12 -19 14 -31 7 -42 -12 -20 -11 -71 2 -80 11 -9 12 -72 1
-72 -4 0 -13 13 -18 30 -6 17 -15 30 -20 30 -8 0 -13 -36 -10 -70 2 -13 1 -13
-8 0 -6 8 -11 29 -11 45 -1 29 -1 29 -16 10 -9 -12 -14 -34 -12 -52 5 -39 1
-42 -12 -10 -8 20 -9 19 -9 -10 -1 -17 5 -34 12 -36 8 -4 9 -6 0 -6 -6 -1 -19
6 -27 15 -15 14 -16 14 -16 0 0 -9 -6 -16 -12 -16 -7 0 -5 -5 4 -11 24 -13 23
-34 -2 -59 -11 -11 -16 -20 -12 -20 5 0 17 9 27 20 12 13 26 18 39 15 19 -5
19 -5 4 5 -22 13 -24 40 -4 40 8 0 18 9 21 20 9 27 17 25 37 -10 15 -26 15
-31 2 -44 -13 -14 -11 -15 15 -13 20 1 34 10 42 24 7 13 16 23 21 23 7 0 13
-49 9 -73 -1 -4 8 -3 19 3 13 7 20 21 20 39 0 35 -19 52 -48 44 -22 -5 -31 10
-12 22 6 3 10 17 10 30 0 12 7 26 16 29 8 3 13 2 10 -3 -8 -13 53 -6 67 8 6 6
22 11 37 11 l25 1 -33 29 c-32 30 -84 41 -97 20 -3 -5 -12 -10 -20 -10 -11 0
-12 6 -4 30 13 36 -4 95 -31 110 -29 16 -32 12 -13 -16z m9 -240 c-3 -9 -6
-18 -6 -20 0 -2 -7 -4 -15 -4 -13 0 -13 3 -3 20 15 24 33 27 24 4z"/>
<path d="M186 353 c-4 -10 -2 -19 3 -21 6 -2 11 -13 11 -25 0 -15 3 -18 11
-10 13 13 8 65 -7 70 -6 2 -15 -4 -18 -14z"/>
<path d="M54 321 c-4 -17 -15 -38 -25 -47 -23 -20 -25 -36 -4 -28 8 4 15 1 15
-5 0 -6 6 -8 14 -5 8 3 16 1 19 -3 3 -5 24 -8 46 -7 42 2 53 -10 29 -34 -9 -9
-9 -12 0 -12 7 0 12 4 12 10 0 5 7 7 15 4 11 -4 21 7 34 37 11 24 18 45 16 47
-2 2 -13 -2 -25 -8 -12 -7 -20 -8 -16 -2 3 5 -1 12 -9 16 -8 3 -15 0 -15 -7 0
-6 -7 -1 -16 12 -13 18 -24 22 -51 19 -31 -4 -34 -2 -28 19 3 13 3 23 0 23 -3
0 -8 -13 -11 -29z m52 -49 c-18 -16 -18 -16 -6 6 6 13 14 21 18 18 3 -4 -2
-14 -12 -24z m77 -52 c-7 -27 -13 -25 -11 4 1 14 5 23 9 20 4 -2 5 -13 2 -24z"/>
<path d="M135 150 c-6 -10 24 -64 32 -56 3 2 -1 15 -8 28 -7 12 -12 26 -11 31
3 10 -6 9 -13 -3z"/>
<path d="M90 116 c0 -2 8 -10 18 -17 15 -13 16 -12 3 4 -13 16 -21 21 -21 13z"/>
</g>
</svg>
