<svg id="bold" enable-background="new 0 0 24 24" height="512" viewBox="0 0 24 24" width="512" xmlns="http://www.w3.org/2000/svg"><path d="m19.25 15c-.414 0-.75.336-.75.75v1h-.5v-2.75h-2.25c-1.81 0-3.32-1.29-3.67-3h-1.33v-2.149c.732-.297 1.25-1.014 1.25-1.851 0-1.103-.897-2-2-2s-2 .897-2 2c0 .837.518 1.554 1.25 1.851v2.149h-4.5c-1.52 0-2.75 1.23-2.75 2.75v3h-.5v-1c0-.414-.336-.75-.75-.75s-.75.336-.75.75v3.5c0 .414.336.75.75.75s.75-.336.75-.75v-1h.5v3c0 1.52 1.23 2.75 2.75 2.75h10.5c1.52 0 2.75-1.23 2.75-2.75v-3h.5v1c0 .414.336.75.75.75s.75-.336.75-.75v-3.5c0-.414-.336-.75-.75-.75zm-14.25 1c0-1.1.9-2 2-2s2 .9 2 2-.9 2-2 2-2-.9-2-2zm7.25 5h-4.5c-.41 0-.75-.34-.75-.75s.34-.75.75-.75h4.5c.41 0 .75.34.75.75s-.34.75-.75.75zm.75-3c-1.1 0-2-.9-2-2s.9-2 2-2 2 .9 2 2-.9 2-2 2z"/><path d="m22.25 1h-.75v-.25c0-.414-.336-.75-.75-.75s-.75.336-.75.75v.25h-2v-.25c0-.414-.336-.75-.75-.75s-.75.336-.75.75v.25h-.75c-.965 0-1.75.785-1.75 1.75v7.5c0 .965.785 1.75 1.75 1.75h6.5c.965 0 1.75-.785 1.75-1.75v-7.5c0-.965-.785-1.75-1.75-1.75zm-1.75 8h-3c-.414 0-.75-.336-.75-.75s.336-.75.75-.75h3c.414 0 .75.336.75.75s-.336.75-.75.75zm0-2.5h-3c-.414 0-.75-.336-.75-.75s.336-.75.75-.75h3c.414 0 .75.336.75.75s-.336.75-.75.75z"/></svg>